<svg width="34" height="33" viewBox="0 0 34 33" fill="none" xmlns="http://www.w3.org/2000/svg">
<path d="M15.4463 4.38441C13.819 5.72001 8.18277 10.3553 4.68993 15.2263C2.26875 18.5653 1.39554 21.2365 1.31615 21.5115C0.839857 22.69 0.681092 23.672 0.681092 24.4577C0.681092 25.4004 0.879549 25.9504 0.879549 25.9504C1.27646 27.2467 2.07029 28.3859 2.9435 29.4072C3.97548 30.6643 4.96777 31.6856 5.99975 32.5105C6.31728 32.7855 6.87296 33.139 7.6271 32.9426L7.70648 32.9034C8.93691 32.3927 12.3107 28.5037 12.3504 28.4645C12.8267 27.9145 13.3427 27.286 13.7793 26.6575C13.9777 26.3825 14.1762 26.029 14.2159 25.6754C14.3349 24.929 13.7793 24.4184 13.3824 24.0256C13.3427 23.9863 13.2633 23.9077 13.2236 23.8684C12.9854 23.6327 12.6679 23.397 12.3504 23.1221C11.6359 22.5328 10.604 21.6686 10.4452 21.1972C10.2864 20.6473 11.4375 18.6439 12.271 17.6618C14.5731 14.9513 17.034 12.5158 18.5422 11.4552V11.4552C21.0825 9.7268 21.8366 9.56967 22.0748 9.64823C22.5511 9.80536 23.4243 10.8267 24.0197 11.5338C24.2975 11.848 24.5753 12.1623 24.7738 12.398C24.8135 12.4373 24.8929 12.5158 24.9326 12.5551C25.2898 12.9479 25.8058 13.4979 26.5996 13.3801C26.9965 13.3015 27.3141 13.1444 27.5919 12.9479C28.2666 12.5158 28.862 12.0052 29.4177 11.5338C29.4574 11.4945 33.3472 8.15551 33.9028 6.93776L33.9425 6.85919C34.141 6.11283 33.7838 5.60216 33.5059 5.24862C32.6724 4.22728 31.6404 3.24522 30.3703 2.22388C29.3383 1.39895 28.1873 0.574026 26.9171 0.220485C26.8378 0.181203 25.0516 -0.447314 22.432 0.613308C22.0351 0.731155 18.9788 1.59537 15.4463 4.38441ZM26.6393 1.00613C27.83 1.35967 28.862 2.10604 29.8543 2.89168C31.0847 3.87374 32.077 4.81651 32.9105 5.79857C33.109 6.07355 33.2281 6.26996 33.2281 6.50565C33.2281 6.58422 33.2281 6.6235 33.1884 6.70206C32.7915 7.52699 30.2115 9.92321 28.9414 10.9838C28.3857 11.4552 27.7903 11.9266 27.195 12.3194C26.9568 12.4766 26.7187 12.5944 26.5202 12.6337C26.2027 12.673 25.9249 12.4373 25.5676 12.0445C25.5279 11.9659 25.4486 11.9266 25.4089 11.848C25.2104 11.6516 24.9326 11.3374 24.6944 11.0231C23.7418 9.92321 22.9877 9.09828 22.3526 8.90187C21.6382 8.66618 20.4077 9.21613 18.1056 10.8267L18.0659 10.866C16.4783 11.9659 13.9777 14.4407 11.6359 17.2297C11.239 17.7011 9.29413 20.333 9.65136 21.5115C9.84981 22.14 10.6833 22.8864 11.7947 23.8291C12.1122 24.1041 12.4298 24.3398 12.6282 24.5362C12.6679 24.5755 12.7473 24.6541 12.8267 24.6934C13.2236 25.0469 13.4617 25.3219 13.422 25.6361C13.3824 25.8718 13.2633 26.0682 13.1045 26.3039C12.7076 26.9324 12.2313 27.4824 11.755 28.0324C10.6833 29.2894 8.26216 31.8427 7.42864 32.2356C7.11111 32.3141 6.87296 32.1963 6.51573 31.9606C5.52345 31.1357 4.57085 30.1536 3.57857 28.9358C2.78474 27.9538 2.0306 26.9324 1.67338 25.7147C1.67338 25.7147 1.1177 24.1434 2.07029 21.8257V21.7865C2.07029 21.7472 2.90381 19.0367 5.32499 15.6977C8.77815 10.9053 14.3349 6.30924 15.9623 5.01293C19.4551 2.22388 22.5908 1.43824 22.6305 1.39895H22.6702C25.0119 0.416897 26.5996 0.966849 26.6393 1.00613Z" fill="white"/>
</svg>
