<svg width="34" height="33" viewBox="0 0 34 33" fill="none" xmlns="http://www.w3.org/2000/svg">
<path d="M33.1685 15.2118C33.025 15.2207 32.916 15.3431 32.925 15.4852C32.9462 15.8207 32.9571 16.1621 32.9571 16.5002C32.9571 25.3139 25.7172 32.4845 16.8182 32.4845C7.91915 32.4845 0.6793 25.3139 0.6793 16.5002C0.6793 16.1621 0.690101 15.8207 0.711318 15.4852C0.720348 15.3431 0.611307 15.2207 0.467801 15.2118C0.326456 15.202 0.200755 15.311 0.19175 15.453C0.169752 15.7991 0.158691 16.1514 0.158691 16.5002C0.158691 25.5983 7.63213 33.0001 16.8182 33.0001C26.0042 33.0001 33.4777 25.5983 33.4777 16.5002C33.4777 16.1514 33.4666 15.7991 33.4446 15.453C33.4357 15.3107 33.3122 15.2031 33.1685 15.2118Z" fill="white"/>
<path d="M32.9108 13.6161C32.9273 13.6161 32.9442 13.6146 32.9611 13.6113C33.1022 13.5839 33.1941 13.4484 33.1665 13.3087C33.027 12.6034 32.8385 11.9003 32.6063 11.219C32.5603 11.0841 32.4123 11.0109 32.2765 11.0573C32.1402 11.1027 32.0671 11.249 32.1131 11.3839C32.338 12.0437 32.5205 12.7247 32.6556 13.4079C32.68 13.5309 32.7888 13.6161 32.9108 13.6161Z" fill="white"/>
<path d="M31.54 9.59267C31.5785 9.59267 31.6177 9.58424 31.6547 9.56612C31.7836 9.50329 31.8367 9.34871 31.7732 9.22094C31.453 8.5768 31.0862 7.94699 30.683 7.34906C30.6031 7.23033 30.4412 7.19837 30.3221 7.2778C30.2025 7.35687 30.1703 7.51699 30.2501 7.6353C30.6406 8.21463 30.996 8.82479 31.3062 9.44879C31.3515 9.53993 31.4439 9.59267 31.54 9.59267Z" fill="white"/>
<path d="M22.0197 1.36423C22.0475 1.37356 22.0757 1.37807 22.1035 1.37807C22.212 1.37807 22.3131 1.31047 22.35 1.20322C22.3963 1.06841 22.3236 0.922005 22.1874 0.876063C21.5008 0.644678 20.792 0.456348 20.0805 0.316512C19.9382 0.287921 19.8024 0.379443 19.7744 0.519176C19.7464 0.658909 19.8381 0.794621 19.979 0.822309C20.6682 0.957763 21.3548 1.14003 22.0197 1.36423Z" fill="white"/>
<path d="M27.4475 4.12854C27.3525 4.23541 27.3631 4.39845 27.471 4.49247C27.9987 4.9522 28.501 5.4507 28.9638 5.974C29.0153 6.03229 29.0873 6.06199 29.1598 6.06199C29.2207 6.06199 29.2818 6.04098 29.3311 5.99816C29.4393 5.90426 29.4502 5.74138 29.3555 5.63436C28.8779 5.0942 28.3596 4.57984 27.8149 4.10527C27.707 4.01109 27.5424 4.02179 27.4475 4.12854Z" fill="white"/>
<path d="M23.9697 2.16665C24.5986 2.47507 25.2134 2.82807 25.7971 3.21589C25.8415 3.24549 25.892 3.25959 25.9418 3.25959C26.0257 3.25959 26.1081 3.21955 26.1583 3.1454C26.2384 3.0272 26.2064 2.86694 26.0871 2.78764C25.4846 2.38747 24.85 2.02303 24.2008 1.70466C24.0714 1.64121 23.9156 1.69383 23.852 1.82124C23.7882 1.94888 23.841 2.10346 23.9697 2.16665Z" fill="white"/>
<path d="M17.8845 0.550292C17.8902 0.550679 17.8959 0.550807 17.9016 0.550807C18.0376 0.550807 18.1521 0.446188 18.1612 0.309729C18.1704 0.167727 18.0618 0.044984 17.9183 0.035677C17.199 -0.0106514 16.4599 -0.0113991 15.7377 0.0344138C15.5942 0.0434887 15.4854 0.166103 15.4946 0.308208C15.504 0.450339 15.626 0.560501 15.771 0.549029C16.4707 0.50435 17.1872 0.505098 17.8845 0.550292Z" fill="white"/>
<path d="M2.10363 9.57912C2.19971 9.57912 2.29199 9.52637 2.33736 9.43537C2.64788 8.81211 3.00338 8.20283 3.39409 7.62441C3.47403 7.50607 3.44202 7.34595 3.32254 7.26675C3.20269 7.18721 3.04138 7.21931 2.96144 7.33762C2.55815 7.93484 2.19107 8.56374 1.8704 9.20726C1.80686 9.3349 1.85973 9.48948 1.98874 9.55257C2.02572 9.57056 2.065 9.57912 2.10363 9.57912Z" fill="white"/>
<path d="M0.72922 13.5969C0.851094 13.5969 0.959902 13.5118 0.984292 13.389C1.1203 12.7064 1.30345 12.0262 1.52893 11.3673C1.57508 11.2325 1.50199 11.0861 1.36587 11.0404C1.22986 10.9952 1.08204 11.0669 1.03578 11.2019C0.803068 11.8821 0.613931 12.5844 0.473601 13.2893C0.445774 13.4289 0.537534 13.5645 0.678619 13.592C0.695667 13.5954 0.71256 13.5969 0.72922 13.5969Z" fill="white"/>
<path d="M9.79808 1.81496C9.73426 1.68719 9.5787 1.63468 9.44943 1.698C8.79969 2.01588 8.16431 2.37993 7.56082 2.7801C7.44134 2.85928 7.40932 3.01953 7.48926 3.13774C7.53947 3.21201 7.62183 3.25218 7.70586 3.25218C7.75568 3.25218 7.806 3.23808 7.85036 3.20861C8.43503 2.82089 9.05059 2.46818 9.67998 2.16025C9.80889 2.09719 9.86175 1.94261 9.79808 1.81496Z" fill="white"/>
<path d="M4.28926 5.62469C4.19443 5.73168 4.20523 5.89459 4.31339 5.98849C4.36272 6.03141 4.42396 6.05245 4.48485 6.05245C4.55716 6.05245 4.62924 6.02275 4.68073 5.96459C5.14389 5.44154 5.64656 4.9434 6.17454 4.48432C6.28259 4.3904 6.29326 4.22751 6.19843 4.1205C6.10337 4.01351 5.93915 4.00306 5.83112 4.09683C5.28609 4.57066 4.76741 5.08478 4.28926 5.62469Z" fill="white"/>
<path d="M11.5491 1.3727C11.5768 1.3727 11.6049 1.36816 11.6326 1.35896C12.2985 1.13539 12.9858 0.953761 13.6756 0.818797C13.8166 0.791237 13.9084 0.655655 13.8805 0.515922C13.8528 0.376447 13.7168 0.284666 13.5747 0.313C12.8626 0.452217 12.1529 0.6398 11.4656 0.87054C11.3293 0.916224 11.2564 1.06263 11.3025 1.19747C11.3394 1.30498 11.4405 1.3727 11.5491 1.3727Z" fill="white"/>
<path d="M20.7447 18.5624C21.0766 18.2517 21.4196 17.9304 21.7516 17.5948C23.1025 16.2296 23.8464 14.3945 23.8464 12.4273C23.8464 8.41815 20.6352 5.15649 16.688 5.15649C12.7409 5.15649 9.52965 8.41815 9.52965 12.4273C9.52965 12.712 9.76275 12.9429 10.0503 12.9429C10.3378 12.9429 10.5709 12.712 10.5709 12.4273C10.5709 8.98675 13.315 6.18773 16.688 6.18773C20.061 6.18773 22.8052 8.98675 22.8052 12.4273C22.8052 14.1229 22.167 15.7018 21.008 16.873C20.6898 17.1945 20.3541 17.509 20.0294 17.8131C18.7679 18.9947 17.4633 20.2162 16.9581 22.0803C16.7696 22.776 16.678 23.565 16.678 24.4923C16.678 24.777 16.9111 25.0079 17.1986 25.0079C17.4861 25.0079 17.7192 24.777 17.7192 24.4923C17.7192 23.6564 17.7992 22.955 17.9637 22.3477C18.3927 20.7653 19.5352 19.6953 20.7447 18.5624Z" fill="white"/>
<path d="M17.2086 26.297C16.7708 26.297 16.4277 26.6339 16.4277 27.0639C16.4277 27.4939 16.778 27.8439 17.2086 27.8439C17.6393 27.8439 17.9895 27.4939 17.9895 27.0639C17.9895 26.6339 17.6465 26.297 17.2086 26.297ZM17.2086 27.3282C17.0654 27.3282 16.9483 27.2094 16.9483 27.0639C16.9483 26.9184 17.0654 26.8126 17.2086 26.8126C17.3519 26.8126 17.4689 26.9184 17.4689 27.0639C17.4689 27.2094 17.3519 27.3282 17.2086 27.3282Z" fill="white"/>
</svg>
